<?xml version="1.0" encoding="UTF-8" standalone="no"?>
<!-- Created with Inkscape (http://www.inkscape.org/) -->

<svg
   width="300"
   height="200"
   viewBox="0 0 299.99998 200"
   version="1.1"
   id="svg1"
   inkscape:version="1.4.2 (ebf0e940, 2025-05-08)"
   sodipodi:docname="ursa-auth-introduction.svg"
   xml:space="preserve"
   xmlns:inkscape="http://www.inkscape.org/namespaces/inkscape"
   xmlns:sodipodi="http://sodipodi.sourceforge.net/DTD/sodipodi-0.dtd"
   xmlns="http://www.w3.org/2000/svg"
   xmlns:svg="http://www.w3.org/2000/svg"><sodipodi:namedview
     id="namedview1"
     pagecolor="#505050"
     bordercolor="#eeeeee"
     borderopacity="1"
     inkscape:showpageshadow="0"
     inkscape:pageopacity="0"
     inkscape:pagecheckerboard="0"
     inkscape:deskcolor="#505050"
     inkscape:document-units="mm"
     showgrid="true"
     showguides="false"
     inkscape:lockguides="false"
     inkscape:zoom="3.4169741"
     inkscape:cx="147.3526"
     inkscape:cy="116.91631"
     inkscape:window-width="1472"
     inkscape:window-height="890"
     inkscape:window-x="0"
     inkscape:window-y="38"
     inkscape:window-maximized="1"
     inkscape:current-layer="svg1"><inkscape:grid
       id="grid1"
       units="px"
       originx="100"
       originy="100"
       spacingx="1"
       spacingy="1"
       empcolor="#0099e5"
       empopacity="0.30196078"
       color="#0099e5"
       opacity="0.14901961"
       empspacing="5"
       enabled="true"
       visible="true" /></sodipodi:namedview><defs
     id="defs1"><marker
       style="overflow:visible"
       id="marker43"
       refX="0"
       refY="0"
       orient="auto-start-reverse"
       inkscape:stockid="Triangle arrow"
       markerWidth="1"
       markerHeight="1"
       viewBox="0 0 1 1"
       inkscape:isstock="true"
       inkscape:collect="always"
       preserveAspectRatio="xMidYMid"><path
         transform="scale(0.5)"
         style="fill:context-stroke;fill-rule:evenodd;stroke:context-stroke;stroke-width:1pt"
         d="M 5.77,0 -2.88,5 V -5 Z"
         id="path43" /></marker><marker
       style="overflow:visible"
       id="marker42"
       refX="0"
       refY="0"
       orient="auto-start-reverse"
       inkscape:stockid="Triangle arrow"
       markerWidth="1"
       markerHeight="1"
       viewBox="0 0 1 1"
       inkscape:isstock="true"
       inkscape:collect="always"
       preserveAspectRatio="xMidYMid"><path
         transform="scale(0.5)"
         style="fill:context-stroke;fill-rule:evenodd;stroke:context-stroke;stroke-width:1pt"
         d="M 5.77,0 -2.88,5 V -5 Z"
         id="path42" /></marker><marker
       style="overflow:visible"
       id="marker38"
       refX="0"
       refY="0"
       orient="auto-start-reverse"
       inkscape:stockid="Triangle arrow"
       markerWidth="1"
       markerHeight="1"
       viewBox="0 0 1 1"
       inkscape:isstock="true"
       inkscape:collect="always"
       preserveAspectRatio="xMidYMid"><path
         transform="scale(0.5)"
         style="fill:context-stroke;fill-rule:evenodd;stroke:context-stroke;stroke-width:1pt"
         d="M 5.77,0 -2.88,5 V -5 Z"
         id="path38" /></marker><marker
       style="overflow:visible"
       id="marker32"
       refX="0"
       refY="0"
       orient="auto-start-reverse"
       inkscape:stockid="Triangle arrow"
       markerWidth="1"
       markerHeight="1"
       viewBox="0 0 1 1"
       inkscape:isstock="true"
       inkscape:collect="always"
       preserveAspectRatio="xMidYMid"><path
         transform="scale(0.5)"
         style="fill:context-stroke;fill-rule:evenodd;stroke:context-stroke;stroke-width:1pt"
         d="M 5.77,0 -2.88,5 V -5 Z"
         id="path32" /></marker><marker
       style="overflow:visible"
       id="marker30"
       refX="0"
       refY="0"
       orient="auto-start-reverse"
       inkscape:stockid="Triangle arrow"
       markerWidth="1"
       markerHeight="1"
       viewBox="0 0 1 1"
       inkscape:isstock="true"
       inkscape:collect="always"
       preserveAspectRatio="xMidYMid"><path
         transform="scale(0.5)"
         style="fill:context-stroke;fill-rule:evenodd;stroke:context-stroke;stroke-width:1pt"
         d="M 5.77,0 -2.88,5 V -5 Z"
         id="path30" /></marker><marker
       style="overflow:visible"
       id="Triangle"
       refX="0"
       refY="0"
       orient="auto-start-reverse"
       inkscape:stockid="Triangle arrow"
       markerWidth="1"
       markerHeight="1"
       viewBox="0 0 1 1"
       inkscape:isstock="true"
       inkscape:collect="always"
       preserveAspectRatio="xMidYMid"><path
         transform="scale(0.5)"
         style="fill:context-stroke;fill-rule:evenodd;stroke:context-stroke;stroke-width:1pt"
         d="M 5.77,0 -2.88,5 V -5 Z"
         id="path135" /></marker><linearGradient
       id="swatch19"
       inkscape:swatch="solid"><stop
         style="stop-color:#e8e8e8;stop-opacity:1;"
         offset="0"
         id="stop20" /></linearGradient><linearGradient
       id="paint0_linear_128_61"
       x1="19.5695"
       y1="96.5644"
       x2="97.526901"
       y2="15.0782"
       gradientUnits="userSpaceOnUse"><stop
         stop-color="#45FFC8"
         id="stop4" /><stop
         offset="1"
         stop-color="#1DBBF1"
         id="stop5" /></linearGradient><linearGradient
       id="paint1_linear_128_61"
       x1="73.785599"
       y1="143.724"
       x2="170.67101"
       y2="190.884"
       gradientUnits="userSpaceOnUse"><stop
         stop-color="#D14AE8"
         id="stop6" /><stop
         offset="0.552228"
         stop-color="#B628E3"
         id="stop7" /><stop
         offset="1"
         stop-color="#8315FD"
         id="stop8" /></linearGradient><linearGradient
       id="paint2_linear_128_61"
       x1="155.914"
       y1="21.815201"
       x2="155.914"
       y2="182.54201"
       gradientUnits="userSpaceOnUse"><stop
         stop-color="#20ABF5"
         id="stop9" /><stop
         offset="0.398093"
         stop-color="#2A8CC3"
         id="stop10" /><stop
         offset="1"
         stop-color="#A104DC"
         id="stop11" /></linearGradient><linearGradient
       id="paint3_linear_128_61"
       x1="90.148102"
       y1="99.451698"
       x2="129.287"
       y2="138.912"
       gradientUnits="userSpaceOnUse"><stop
         stop-color="#FE5B01"
         id="stop12" /><stop
         offset="1"
         stop-color="#FFB200"
         id="stop13" /></linearGradient><filter
       inkscape:collect="always"
       style="color-interpolation-filters:sRGB"
       id="filter26"
       x="-0.0097857062"
       y="-0.015542004"
       width="1.0195714"
       height="1.031084"><feGaussianBlur
         inkscape:collect="always"
         stdDeviation="1.100892"
         id="feGaussianBlur26" /></filter></defs><rect
     style="mix-blend-mode:normal;fill:#e8e8e8;fill-opacity:1;stroke:none;stroke-width:0.460977;stroke-linecap:round;stroke-linejoin:round;stroke-dasharray:none;stroke-opacity:1;paint-order:markers stroke fill;filter:url(#filter26)"
     id="rect12"
     width="270"
     height="170"
     x="15.000001"
     y="14.999999"
     transform="matrix(1.0897826,0,0,1.1410037,-13.46738,-14.100362)" /><path
     style="fill:none;fill-opacity:1;stroke:#303030;stroke-width:1;stroke-linecap:round;stroke-linejoin:round;stroke-dasharray:none;stroke-opacity:1;marker-end:url(#Triangle);paint-order:markers stroke fill"
     d="M 75.000002,84.999997 C 130.70665,83.319984 180.00001,69.999998 200.00001,59.999998"
     id="path26"
     sodipodi:nodetypes="cc" /><path
     style="fill:none;fill-opacity:1;stroke:#303030;stroke-width:1;stroke-linecap:round;stroke-linejoin:round;stroke-dasharray:none;stroke-opacity:1;marker-end:url(#marker30);paint-order:markers stroke fill"
     d="M 200.00001,64.999998 C 180.00001,74.999997 110,89.999997 80.000003,89.999997"
     id="path29"
     sodipodi:nodetypes="cc" /><g
     inkscape:label="Layer 1"
     inkscape:groupmode="layer"
     id="layer1"><g
       inkscape:label="Layer 1"
       id="layer1-3"
       transform="matrix(0.5,0,0,0.5,21.500002,71.499996)"><g
         inkscape:label="Layer 1"
         id="layer1-4"><rect
           style="fill:#ffffff;stroke:#878787;stroke-width:2.49827;stroke-linejoin:round;stroke-dasharray:none;stroke-opacity:1"
           id="rect1"
           width="90"
           height="70"
           x="5"
           y="15" /><rect
           style="fill:#878787;fill-opacity:1;stroke:#878787;stroke-width:2.49827;stroke-linejoin:round;stroke-dasharray:none;stroke-opacity:1"
           id="rect2"
           width="90"
           height="6.9836488"
           x="5"
           y="15" /><rect
           style="fill:none;stroke:#878787;stroke-width:4;stroke-linejoin:round;stroke-dasharray:none;stroke-opacity:1"
           id="rect3"
           width="90"
           height="70"
           x="5"
           y="15" /><circle
           style="fill:#ff5940;fill-opacity:1;stroke:none;stroke-width:2.49827;stroke-linejoin:round;stroke-dasharray:none;stroke-opacity:1"
           id="path2"
           cx="7"
           cy="18"
           r="2" /><circle
           style="fill:#ffcb40;fill-opacity:1;stroke:none;stroke-width:2.49827;stroke-linejoin:round;stroke-dasharray:none;stroke-opacity:1"
           id="circle2"
           cx="11.7"
           cy="18"
           r="2" /><circle
           style="fill:#40ff61;fill-opacity:1;stroke:none;stroke-width:2.49827;stroke-linejoin:round;stroke-dasharray:none;stroke-opacity:1"
           id="circle3"
           cx="16.4"
           cy="18"
           r="2" /></g><g
         inkscape:label="Layer 1"
         id="layer1-8"
         transform="matrix(0.6,0,0,0.6,20,24)"><text
           xml:space="preserve"
           style="font-style:normal;font-variant:normal;font-weight:normal;font-stretch:normal;font-family:'Hiragino Maru Gothic ProN';-inkscape-font-specification:'Hiragino Maru Gothic ProN';text-align:start;writing-mode:lr-tb;direction:ltr;text-anchor:start;fill:#ffffff;stroke:none;stroke-width:2"
           x="15"
           y="40"
           id="text1"><tspan
             sodipodi:role="line"
             id="tspan1"
             x="15"
             y="40" /></text><text
           xml:space="preserve"
           style="font-style:normal;font-variant:normal;font-weight:normal;font-stretch:normal;font-family:'Hiragino Maru Gothic ProN';-inkscape-font-specification:'Hiragino Maru Gothic ProN';text-align:start;writing-mode:lr-tb;direction:ltr;text-anchor:start;white-space:pre;inline-size:20;display:inline;fill:#ffffff;stroke:none;stroke-width:2"
           x="40"
           y="40"
           id="text2" /><text
           xml:space="preserve"
           style="font-style:normal;font-variant:normal;font-weight:normal;font-stretch:normal;font-family:'Apple Color Emoji';-inkscape-font-specification:'Apple Color Emoji';text-align:start;writing-mode:lr-tb;direction:ltr;text-anchor:start;fill:#ffffff;stroke:none;stroke-width:2"
           x="30"
           y="40"
           id="text3"><tspan
             sodipodi:role="line"
             x="30"
             y="40"
             id="tspan4" /></text><circle
           style="fill:#ffffff;stroke:#0099ff;stroke-width:2.49827;stroke-dasharray:none;stroke-opacity:1"
           id="path5"
           cx="50"
           cy="50"
           r="45" /><ellipse
           style="fill:#ffffff;stroke:#0099ff;stroke-width:2;stroke-dasharray:none;stroke-opacity:1"
           id="circle5"
           cx="50"
           cy="50"
           rx="25"
           ry="45" /><path
           style="fill:#ffffff;stroke:#0099ff;stroke-width:2;stroke-dasharray:none;stroke-opacity:1"
           d="M 5,50 H 95"
           id="path6" /><path
           style="fill:#ffffff;stroke:#0099ff;stroke-width:2;stroke-dasharray:none;stroke-opacity:1"
           d="M 50,5 V 95"
           id="path7" /><path
           style="fill:#ffffff;stroke:#0099ff;stroke-width:2;stroke-dasharray:none;stroke-opacity:1"
           d="M 13,25 H 87"
           id="path8"
           sodipodi:nodetypes="cc" /><path
           style="fill:#ffffff;stroke:#0099ff;stroke-width:2;stroke-dasharray:none;stroke-opacity:1"
           d="M 13,76 H 87"
           id="path9"
           sodipodi:nodetypes="cc" /><circle
           style="fill:none;stroke:#0099ff;stroke-width:4;stroke-dasharray:none;stroke-opacity:1"
           id="circle1"
           cx="50"
           cy="50"
           r="45" /></g></g><g
       inkscape:label="Layer 1"
       id="layer1-0"
       transform="matrix(0.3,0,0,0.3,49.250002,90.499995)"><rect
         style="fill:#848484;fill-opacity:1;stroke-width:2.49827;stroke-linejoin:round"
         id="rect1-4"
         width="65"
         height="90"
         x="17.5"
         y="5" /><rect
         style="fill:#4bdfff;fill-opacity:1;stroke:none;stroke-width:2.49827;stroke-linejoin:round;stroke-opacity:1"
         id="rect2-0"
         width="15"
         height="15"
         x="22.5"
         y="22.5"
         rx="4"
         ry="4" /><rect
         style="fill:#89ff57;fill-opacity:1;stroke:none;stroke-width:2.49827;stroke-linejoin:round;stroke-opacity:1"
         id="rect3-5"
         width="15"
         height="15"
         x="42.5"
         y="22.5"
         rx="4"
         ry="4" /><rect
         style="fill:#ffa847;fill-opacity:1;stroke:none;stroke-width:2.49827;stroke-linejoin:round;stroke-opacity:1"
         id="rect4"
         width="15"
         height="15"
         x="62.5"
         y="22.5"
         rx="4"
         ry="4" /><rect
         style="fill:#ffa847;fill-opacity:1;stroke:none;stroke-width:2.49827;stroke-linejoin:round;stroke-opacity:1"
         id="rect5"
         width="15"
         height="15"
         x="22.5"
         y="42.5"
         rx="4"
         ry="4" /><rect
         style="fill:#4bdfff;fill-opacity:1;stroke:none;stroke-width:2.49827;stroke-linejoin:round;stroke-opacity:1"
         id="rect6"
         width="15"
         height="15"
         x="42.5"
         y="42.5"
         rx="4"
         ry="4" /><rect
         style="fill:#89ff57;fill-opacity:1;stroke:none;stroke-width:2.49827;stroke-linejoin:round;stroke-opacity:1"
         id="rect7"
         width="15"
         height="15"
         x="62.5"
         y="42.5"
         rx="4"
         ry="4" /><rect
         style="fill:#89ff57;fill-opacity:1;stroke:none;stroke-width:2.49827;stroke-linejoin:round;stroke-opacity:1"
         id="rect8"
         width="15"
         height="15"
         x="22.5"
         y="62.5"
         rx="4"
         ry="4" /><rect
         style="fill:#ffa847;fill-opacity:1;stroke:none;stroke-width:2.49827;stroke-linejoin:round;stroke-opacity:1"
         id="rect9"
         width="15"
         height="15"
         x="42.5"
         y="62.5"
         rx="4"
         ry="4" /><rect
         style="fill:#4bdfff;fill-opacity:1;stroke:none;stroke-width:2.49827;stroke-linejoin:round;stroke-opacity:1"
         id="rect10"
         width="15"
         height="15"
         x="62.5"
         y="62.5"
         rx="4"
         ry="4" /><rect
         style="fill:none;fill-opacity:1;stroke:#00001d;stroke-width:4;stroke-linejoin:round;stroke-dasharray:none;stroke-opacity:1"
         id="rect11"
         width="65"
         height="90"
         x="17.5"
         y="5"
         rx="4"
         ry="4" /><path
         style="fill:none;fill-opacity:1;stroke:#00001d;stroke-width:2.49827;stroke-linecap:round;stroke-linejoin:round;stroke-opacity:1"
         d="M 84.5,27 V 47"
         id="path11" /></g><g
       id="g1"
       transform="translate(209.96045,31.467686)"><path
         d="M 22.56,12.25 C 22.56,11.47 22.49,10.72 22.36,10 H 12 V 14.26 H 17.92 C 17.66,15.63 16.88,16.79 15.71,17.57 V 20.34 H 19.28 C 21.36,18.42 22.56,15.6 22.56,12.25 Z"
         fill="#4285f4"
         id="path1" /><path
         d="M 12,23 C 14.97,23 17.46,22.02 19.28,20.34 L 15.71,17.57 C 14.73,18.23 13.48,18.63 12,18.63 9.14,18.63 6.71,16.7 5.84,14.1 H 2.18 V 16.94 C 3.99,20.53 7.7,23 12,23 Z"
         fill="#34a853"
         id="path2-0" /><path
         d="M 5.84,14.09 C 5.62,13.43 5.49,12.73 5.49,12 5.49,11.27 5.62,10.57 5.84,9.91 V 7.07 H 2.18 C 1.43,8.55 1,10.22 1,12 1,13.78 1.43,15.45 2.18,16.93 L 5.03,14.71 Z"
         fill="#fbbc05"
         id="path3" /><path
         d="M 12,5.38 C 13.62,5.38 15.06,5.94 16.21,7.02 L 19.36,3.87 C 17.45,2.09 14.97,1 12,1 7.7,1 3.99,3.47 2.18,7.07 L 5.84,9.91 C 6.71,7.31 9.14,5.38 12,5.38 Z"
         fill="#ea4335"
         id="path4" /><path
         d="M 1,1 H 23 V 23 H 1 Z"
         fill="none"
         id="path5-0" /></g><path
       d="M 227.97555,58.306189 H 231.58304 L 223.66224,67.32492 232.91625,79.559024 H 225.65421 L 219.96848,72.124454 213.45931,79.559024 H 209.85182 L 218.24317,69.912904 209.38128,58.306189 H 216.82369 L 221.96045,65.097685 Z M 226.71292,77.441583 H 228.71273 L 215.77281,60.345206 H 213.624 Z"
       id="path1-8"
       style="stroke-width:0.0784237" /><g
       style="fill:none"
       id="g2"
       transform="matrix(0.02453478,0,0,0.02453478,259.39865,58.097685)"><path
         fill-rule="evenodd"
         clip-rule="evenodd"
         d="M 8,0 C 3.58,0 0,3.58 0,8 0,11.54 2.29,14.53 5.47,15.59 5.87,15.66 6.02,15.42 6.02,15.21 6.02,15.02 6.01,14.39 6.01,13.72 4,14.09 3.48,13.23 3.32,12.78 3.23,12.55 2.84,11.84 2.5,11.65 2.22,11.5 1.82,11.13 2.49,11.12 3.12,11.11 3.57,11.7 3.72,11.94 4.44,13.15 5.59,12.81 6.05,12.6 6.12,12.08 6.33,11.73 6.56,11.53 4.78,11.33 2.92,10.64 2.92,7.58 2.92,6.71 3.23,5.99 3.74,5.43 3.66,5.23 3.38,4.41 3.82,3.31 3.82,3.31 4.49,3.1 6.02,4.13 6.66,3.95 7.34,3.86 8.02,3.86 8.7,3.86 9.38,3.95 10.02,4.13 11.55,3.09 12.22,3.31 12.22,3.31 12.66,4.41 12.38,5.23 12.3,5.43 12.81,5.99 13.12,6.7 13.12,7.58 13.12,10.65 11.25,11.33 9.47,11.53 9.76,11.78 10.01,12.26 10.01,13.01 10.01,14.08 10,14.94 10,15.21 10,15.42 10.15,15.67 10.55,15.59 13.71,14.53 16,11.53 16,8 16,3.58 12.42,0 8,0 Z"
         transform="scale(64)"
         fill="#1b1f23"
         id="path1-7" /></g><path
       d="M 257.50482,36.672396 C 257.34265,36.798213 254.4796,38.411476 254.4796,41.998675 254.4796,46.147862 258.12272,47.615734 258.23176,47.652077 258.21499,47.74155 257.653,49.662367 256.31095,51.619529 255.11428,53.34183 253.86448,55.06134 251.96324,55.06134 250.062,55.06134 249.57271,53.956941 247.37789,53.956941 245.239,53.956941 244.47849,55.097685 242.73942,55.097685 241.00034,55.097685 239.78691,53.503996 238.39173,51.546835 236.77566,49.248568 235.46996,45.678142 235.46996,42.289454 235.46996,36.854132 239.00404,33.971512 242.48219,33.971512 244.33032,33.971512 245.87088,35.184954 247.0312,35.184954 248.1356,35.184954 249.8579,33.898819 251.96045,33.898819 252.75729,33.898819 255.62035,33.971512 257.50482,36.672396 Z M 250.9623,31.597756 C 251.83184,30.56605 252.44695,29.134527 252.44695,27.703005 252.44695,27.504489 252.43017,27.303183 252.39382,27.141017 250.97907,27.19414 249.29592,28.08325 248.28099,29.260344 247.48415,30.166234 246.74042,31.597756 246.74042,33.048853 246.74042,33.266933 246.77677,33.485019 246.79355,33.554916 246.88301,33.571696 247.0284,33.591266 247.17379,33.591266 248.44315,33.591266 250.03964,32.741295 250.9623,31.597756 Z"
       id="path1-0"
       style="stroke-width:0.0279594" /><g
       id="g3"
       transform="matrix(0.59153796,0,0,0.59153796,260.24951,31.61062)"><path
         fill="url(#a)"
         d="M 16.7,39.8 C 7.2,38.1 0,29.9 0,20 0,9 9,0 20,0 31,0 40,9 40,20 40,29.9 32.8,38.1 23.3,39.8 L 22.2,38.9 H 17.8 Z"
         id="path2-1"
         style="fill:#1877f2;fill-opacity:1;stroke-width:1.00157;stroke-dasharray:none" /><path
         fill="#ffffff"
         d="M 27.8,25.6 28.7,20 H 23.4 V 16.1 C 23.4,14.5 24,13.3 26.4,13.3 H 29 V 8.2 C 27.6,8 26,7.8 24.6,7.8 20,7.8 16.8,10.6 16.8,15.6 V 20 H 11.8 V 25.6 H 16.8 V 39.7 C 17.9,39.9 19,40 20.1,40 21.2,40 22.3,39.9 23.4,39.7 V 25.6 Z"
         id="path3-0" /></g><g
       id="g4"
       transform="matrix(0.30555555,0,0,0.30555555,235.41045,58.547686)"><rect
         fill="#f25022"
         width="34.200001"
         height="34.200001"
         id="rect1-0"
         x="0"
         y="0" /><rect
         x="37.799999"
         fill="#7fba00"
         width="34.200001"
         height="34.200001"
         id="rect2-03"
         y="0" /><rect
         y="37.799999"
         fill="#00a4ef"
         width="34.200001"
         height="34.200001"
         id="rect3-8"
         x="0" /><rect
         x="37.799999"
         y="37.799999"
         fill="#ffb900"
         width="34.200001"
         height="34.200001"
         id="rect4-3" /></g><text
       xml:space="preserve"
       style="font-style:normal;font-variant:normal;font-weight:normal;font-stretch:normal;font-size:10.6667px;font-family:Chalkboard;-inkscape-font-specification:Chalkboard;text-align:start;writing-mode:lr-tb;direction:ltr;text-anchor:start;fill:#001228;fill-opacity:1;stroke:none;stroke-width:1.00157;stroke-linecap:round;stroke-linejoin:round;stroke-dasharray:none;stroke-opacity:1;paint-order:markers stroke fill"
       x="10.035474"
       y="70.937675"
       id="text5"><tspan
         sodipodi:role="line"
         x="10.035474"
         y="70.937675"
         style="font-size:10.6667px;stroke:none;stroke-width:1.00157;stroke-dasharray:none;stroke-opacity:1;paint-order:markers stroke fill"
         id="tspan6">Your application</tspan></text><text
       xml:space="preserve"
       style="font-style:normal;font-variant:normal;font-weight:normal;font-stretch:normal;font-size:10.6667px;font-family:Chalkboard;-inkscape-font-specification:Chalkboard;text-align:start;writing-mode:lr-tb;direction:ltr;text-anchor:start;fill:#001228;fill-opacity:1;stroke:none;stroke-width:1.00157;stroke-linecap:round;stroke-linejoin:round;stroke-dasharray:none;stroke-opacity:1;paint-order:markers stroke fill"
       x="204.42522"
       y="21.555052"
       id="text7"><tspan
         sodipodi:role="line"
         id="tspan7"
         x="204.42522"
         y="21.555052">OAuth providers</tspan></text><text
       xml:space="preserve"
       style="font-style:normal;font-variant:normal;font-weight:normal;font-stretch:normal;font-size:10.6667px;font-family:Chalkboard;-inkscape-font-specification:Chalkboard;text-align:start;writing-mode:lr-tb;direction:ltr;text-anchor:start;fill:#001228;fill-opacity:1;stroke:none;stroke-width:1.00157;stroke-linecap:round;stroke-linejoin:round;stroke-dasharray:none;stroke-opacity:1;paint-order:markers stroke fill"
       x="126.42313"
       y="129.68555"
       id="text8"><tspan
         sodipodi:role="line"
         id="tspan8"
         x="126.42313"
         y="129.68555">UrsaAuth</tspan></text><g
       style="fill:none"
       id="g8"
       transform="matrix(0.04357456,0,0,0.04357456,161.07102,130.12305)"><path
         fill-rule="evenodd"
         clip-rule="evenodd"
         d="M 208.687,31.859 30.0947,167.73 C 8.16388,127.966 0.567559,79.9975 0,51.2275 V 33.6181 C 0,31.0567 2.7788,29.5628 4.16851,29.1356 33.5617,20.2778 93.2465,2.30524 96.8378,1.28069 100.429,0.256138 103.464,0 104.534,0 H 104.631 C 105.7,0 108.735,0.256138 112.327,1.28069 115.918,2.30524 175.603,20.2778 204.996,29.1356 206.03,29.4533 207.832,30.3613 208.687,31.859 Z"
         fill="url(#paint0_linear_128_61)"
         id="path1-02"
         style="fill:url(#paint0_linear_128_61)" /><path
         fill-rule="evenodd"
         clip-rule="evenodd"
         d="M 30.0938,167.952 208.686,32.0815 C 208.981,32.5983 209.164,33.1842 209.164,33.8406 V 51.45 C 208.202,100.223 187.038,204.172 110.081,229.786 109.013,230.213 106.49,231.067 104.951,231.067 H 104.212 C 102.673,231.067 100.15,230.213 99.0814,229.786 67.5193,219.281 45.3415,195.6 30.0938,167.952 Z"
         fill="url(#paint1_linear_128_61)"
         id="path2-84"
         style="fill:url(#paint1_linear_128_61)" /><path
         d="M 111.74,1.28325 C 108.147,0.25665 105.11,0 104.04,0 L 103.719,231.305 H 104.361 C 105.901,231.305 108.425,230.45 109.494,230.022 186.489,204.357 207.663,100.2 208.625,51.3299 V 33.6853 C 208.625,31.1188 205.845,29.6216 204.454,29.1939 175.047,20.3181 115.333,2.30985 111.74,1.28325 Z"
         fill="url(#paint2_linear_128_61)"
         fill-opacity="0.21"
         id="path3-4"
         style="fill:url(#paint2_linear_128_61)" /><ellipse
         cx="104.905"
         cy="114.209"
         rx="47.800999"
         ry="47.480202"
         fill="#e3e2fa"
         id="ellipse3" /><path
         fill-rule="evenodd"
         clip-rule="evenodd"
         d="M 96.2435,124.475 C 92.6077,124.796 83.4111,123.192 78.9197,119.342 74.0971,115.208 71.541,109.718 71.541,101.697 71.541,91.7469 80.5239,81.1654 93.0355,81.4861 104.919,81.7907 112.934,88.4894 114.53,99.1307 115.363,104.684 114.514,107.353 113.854,109.426 113.752,109.749 113.654,110.057 113.568,110.359 113.247,111.429 112.798,113.76 113.568,114.53 114.337,115.3 126.079,126.614 131.854,132.174 132.388,132.816 133.458,134.42 133.458,135.703 V 141.799 C 133.458,142.761 133.201,143.082 132.175,143.082 H 119.342 C 118.594,142.975 117.096,142.248 117.096,140.195 117.096,138.006 116.863,137.684 116.396,137.039 116.316,136.928 116.228,136.807 116.134,136.666 115.492,135.703 114.209,135.703 112.926,135.703 111.643,135.703 110.68,135.382 110.039,134.741 109.397,134.099 109.397,133.137 109.718,131.854 110.039,130.57 109.718,129.287 109.076,128.966 108.974,128.915 108.856,128.848 108.723,128.772 108.019,128.372 106.896,127.734 105.547,128.004 103.943,128.325 101.697,128.004 100.414,126.721 99.131,125.437 97.5267,124.401 96.2435,124.475 Z M 87.5814,100.094 C 90.2391,100.094 92.3936,97.9393 92.3936,95.2816 92.3936,92.6239 90.2391,90.4694 87.5814,90.4694 84.9237,90.4694 82.7692,92.6239 82.7692,95.2816 82.7692,97.9393 84.9237,100.094 87.5814,100.094 Z"
         fill="url(#paint3_linear_128_61)"
         id="path4-8"
         style="fill:url(#paint3_linear_128_61)" /></g><text
       xml:space="preserve"
       style="font-style:normal;font-variant:normal;font-weight:normal;font-stretch:normal;font-size:5.33333px;font-family:Chalkboard;-inkscape-font-specification:Chalkboard;text-align:start;writing-mode:lr-tb;direction:ltr;text-anchor:start;fill:#001228;fill-opacity:1;stroke:none;stroke-width:0.5;stroke-linecap:round;stroke-linejoin:round;stroke-dasharray:none;stroke-opacity:1;paint-order:markers stroke fill"
       x="129.1799"
       y="136.37288"
       id="text9"><tspan
         sodipodi:role="line"
         id="tspan9"
         x="129.1799"
         y="136.37288"
         style="font-size:5.33333px;stroke:none;stroke-width:0.5;stroke-dasharray:none;stroke-opacity:1;paint-order:markers stroke fill">using Auth.js</tspan></text><text
       xml:space="preserve"
       style="font-style:normal;font-variant:normal;font-weight:normal;font-stretch:normal;font-size:6.66667px;font-family:Chalkboard;-inkscape-font-specification:Chalkboard;text-align:start;writing-mode:lr-tb;direction:ltr;text-anchor:start;fill:#001228;fill-opacity:1;stroke:none;stroke-width:0.5;stroke-linecap:round;stroke-linejoin:round;stroke-dasharray:none;stroke-opacity:1;paint-order:markers stroke fill"
       x="221.16837"
       y="87.931122"
       id="text10"><tspan
         sodipodi:role="line"
         id="tspan10"
         x="221.16837"
         y="87.931122"
         style="font-size:6.66667px;stroke:none;stroke-width:0.5;stroke-dasharray:none;stroke-opacity:1;paint-order:markers stroke fill">...and many others!</tspan></text><g
       inkscape:label="Layer 1"
       id="layer1-7"
       transform="matrix(0.42597631,0,0,0.42597631,223.69529,149.35059)"><rect
         style="fill:#7f7f7f;fill-opacity:1;stroke:none;stroke-width:0.974163;stroke-linecap:round;stroke-linejoin:round;stroke-dasharray:none"
         id="rect1-6"
         width="50"
         height="82.164192"
         x="25"
         y="10"
         rx="1.8920408"
         ry="2" /><rect
         style="fill:#595959;fill-opacity:1;stroke:none;stroke-width:0.558625;stroke-linecap:round;stroke-linejoin:round;stroke-dasharray:none"
         id="rect2-1"
         width="50"
         height="2"
         x="25"
         y="45"
         rx="0" /><rect
         style="fill:#595959;fill-opacity:1;stroke:none;stroke-width:0.557803;stroke-linecap:round;stroke-linejoin:round;stroke-dasharray:none"
         id="rect3-2"
         width="49.852982"
         height="2"
         x="25.147018"
         y="48"
         rx="0" /><rect
         style="fill:#595959;fill-opacity:1;stroke:none;stroke-width:0.558625;stroke-linecap:round;stroke-linejoin:round;stroke-dasharray:none"
         id="rect4-1"
         width="50"
         height="2"
         x="25"
         y="51.082096"
         rx="0" /><circle
         style="fill:#595959;fill-opacity:1;stroke:none;stroke-width:1.00157;stroke-linecap:round;stroke-linejoin:round;stroke-dasharray:none"
         id="path4-3"
         cx="71"
         cy="57.5"
         r="2.5" /><rect
         style="fill:#595959;fill-opacity:1;stroke:none;stroke-width:1.00157;stroke-linecap:round;stroke-linejoin:round;stroke-dasharray:none"
         id="rect5-6"
         width="35"
         height="5"
         x="32.513855"
         y="20" /><rect
         style="fill:#595959;fill-opacity:1;stroke:none;stroke-width:1.00157;stroke-linecap:round;stroke-linejoin:round;stroke-dasharray:none"
         id="rect6-5"
         width="45"
         height="25"
         x="27.513865"
         y="65" /><rect
         style="fill:none;fill-opacity:1;stroke:#2b2b2b;stroke-width:2;stroke-linecap:round;stroke-linejoin:round;stroke-dasharray:none;stroke-opacity:1"
         id="rect7-7"
         width="50"
         height="82.164192"
         x="25"
         y="10" /></g><text
       xml:space="preserve"
       style="font-style:normal;font-variant:normal;font-weight:normal;font-stretch:normal;font-size:10.6667px;font-family:Chalkboard;-inkscape-font-specification:Chalkboard;text-align:start;writing-mode:lr-tb;direction:ltr;text-anchor:start;fill:#001228;fill-opacity:1;stroke:none;stroke-width:1.00157;stroke-linecap:round;stroke-linejoin:round;stroke-dasharray:none;stroke-opacity:1;paint-order:markers stroke fill"
       x="209.99409"
       y="148.51952"
       id="text11"><tspan
         sodipodi:role="line"
         x="209.99409"
         y="148.51952"
         style="font-size:10.6667px;stroke:none;stroke-opacity:1;paint-order:markers stroke fill"
         id="tspan11">Your API server</tspan></text><g
       inkscape:label="Layer 1"
       id="layer1-33"
       transform="matrix(0.49193547,0,0,0.49193547,122.52823,73.278224)"><circle
         style="fill:#ffffff;fill-opacity:1;stroke:#000000;stroke-width:3;stroke-dasharray:none;stroke-opacity:1"
         id="path1-85"
         cy="50"
         cx="50"
         r="45" /><path
         style="fill:#8e4d31;fill-opacity:1;stroke:#000000;stroke-width:2;stroke-dasharray:none;stroke-opacity:1"
         d="M 35,25 H 65 L 70,17 80,23 75,30 85,65 70,85 H 30 L 15,65 25,30 20,23 30,17 Z"
         id="path2-8"
         sodipodi:nodetypes="ccccccccccccc" /><path
         style="fill:none;fill-opacity:1;stroke:#000000;stroke-width:2;stroke-dasharray:none;stroke-opacity:1"
         d="M 40,60 35,75 V 80 L 50.366028,82.667465 65,80 V 75 L 60,60 50,55 Z"
         id="path3-9"
         sodipodi:nodetypes="ccccccccc" /><path
         style="fill:none;stroke:#000000;stroke-width:2;stroke-dasharray:none;stroke-opacity:1"
         d="M 40,72 45,75 50,72.5 55,75 60,72"
         id="path6-6"
         sodipodi:nodetypes="ccccc" /><path
         style="fill:none;stroke:#000000;stroke-width:2;stroke-dasharray:none;stroke-opacity:1"
         d="M 50,67.5 V 72.5"
         id="path7-0" /><path
         style="fill:#5f250d;fill-opacity:1;stroke:#000000;stroke-width:2;stroke-dasharray:none;stroke-opacity:1"
         d="M 45,62.5 H 55 L 50,67.5 Z"
         id="path8-4" /><path
         style="fill:#000000;fill-opacity:1;stroke:#000000;stroke-width:2;stroke-dasharray:none;stroke-opacity:1"
         d="M 35,50 H 40 V 55 H 35 Z"
         id="path9-2"
         sodipodi:nodetypes="ccccc" /><path
         style="fill:#000000;fill-opacity:1;stroke:#000000;stroke-width:2;stroke-dasharray:none;stroke-opacity:1"
         d="M 60,50 V 55 H 65 V 50 Z"
         id="path10"
         sodipodi:nodetypes="ccccc" /><path
         style="fill:none;stroke:#000000;stroke-width:2;stroke-dasharray:none;stroke-opacity:1"
         d="M 30,45 40,50"
         id="path11-3" /><path
         style="fill:none;stroke:#000000;stroke-width:2;stroke-dasharray:none;stroke-opacity:1"
         d="M 60,50 70,45"
         id="path12" /></g></g><text
     xml:space="preserve"
     style="font-style:normal;font-variant:normal;font-weight:normal;font-stretch:normal;font-size:5.33333px;font-family:Chalkboard;-inkscape-font-specification:Chalkboard;text-align:start;writing-mode:lr-tb;direction:ltr;text-anchor:start;fill:#1e1e1e;fill-opacity:1;stroke:none;stroke-width:1;stroke-linecap:round;stroke-linejoin:round;stroke-dasharray:none;stroke-opacity:1;paint-order:markers stroke fill"
     x="73"
     y="80"
     id="text26"><tspan
       sodipodi:role="line"
       id="tspan26"
       x="73"
       y="80">1. provider selection</tspan></text><text
     xml:space="preserve"
     style="font-style:normal;font-variant:normal;font-weight:normal;font-stretch:normal;font-size:5.33333px;font-family:Chalkboard;-inkscape-font-specification:Chalkboard;text-align:start;writing-mode:lr-tb;direction:ltr;text-anchor:start;fill:#1e1e1e;fill-opacity:1;stroke:none;stroke-width:1;stroke-linecap:round;stroke-linejoin:round;stroke-dasharray:none;stroke-opacity:1;paint-order:markers stroke fill"
     x="124.06522"
     y="61.724483"
     id="text27"><tspan
       sodipodi:role="line"
       id="tspan27"
       x="124.06522"
       y="61.724483">2. OAuth 2.0 authentication</tspan></text><text
     xml:space="preserve"
     style="font-style:normal;font-variant:normal;font-weight:normal;font-stretch:normal;font-size:5.33333px;font-family:Chalkboard;-inkscape-font-specification:Chalkboard;text-align:start;writing-mode:lr-tb;direction:ltr;text-anchor:start;fill:#1e1e1e;fill-opacity:1;stroke:none;stroke-width:1;stroke-linecap:round;stroke-linejoin:round;stroke-dasharray:none;stroke-opacity:1;paint-order:markers stroke fill"
     x="76.448929"
     y="96.861107"
     id="text28"><tspan
       sodipodi:role="line"
       x="76.448929"
       y="96.861107"
       id="tspan29"
       style="font-size:5.33333px">3. user infomation</tspan><tspan
       sodipodi:role="line"
       x="76.448929"
       y="103.52777"
       style="font-size:5.33333px"
       id="tspan37">   encryption</tspan></text><path
     style="fill:none;fill-opacity:1;stroke:#303030;stroke-width:1;stroke-linecap:round;stroke-linejoin:round;stroke-dasharray:none;stroke-opacity:1;marker-start:url(#marker32);marker-end:url(#marker32);paint-order:markers stroke fill"
     d="M 80.000003,113.04262 C 87.868844,115 116,115 125,113.39451"
     id="path31"
     sodipodi:nodetypes="cc" /><text
     xml:space="preserve"
     style="font-style:normal;font-variant:normal;font-weight:normal;font-stretch:normal;font-size:5.33333px;font-family:Chalkboard;-inkscape-font-specification:Chalkboard;text-align:start;writing-mode:lr-tb;direction:ltr;text-anchor:start;fill:#1e1e1e;fill-opacity:1;stroke:none;stroke-width:1;stroke-linecap:round;stroke-linejoin:round;stroke-dasharray:none;stroke-opacity:1;paint-order:markers stroke fill"
     x="76.553947"
     y="120.51921"
     id="text35"><tspan
       sodipodi:role="line"
       x="76.553947"
       y="120.51921"
       style="font-size:5.33333px"
       id="tspan36">4. user information</tspan><tspan
       sodipodi:role="line"
       x="76.553947"
       y="127.18587"
       style="font-size:5.33333px"
       id="tspan38">   decryption</tspan></text><path
     style="fill:none;fill-opacity:1;stroke:#303030;stroke-width:1;stroke-linecap:round;stroke-linejoin:round;stroke-dasharray:none;stroke-opacity:1;marker-end:url(#marker38);paint-order:markers stroke fill"
     d="M 70.000003,125 C 95.000003,154.99999 180.00002,159.99999 230.00001,159.99999"
     id="path36"
     sodipodi:nodetypes="cc" /><text
     xml:space="preserve"
     style="font-style:normal;font-variant:normal;font-weight:normal;font-stretch:normal;font-size:5.33333px;font-family:Chalkboard;-inkscape-font-specification:Chalkboard;text-align:start;writing-mode:lr-tb;direction:ltr;text-anchor:start;fill:#1e1e1e;fill-opacity:1;stroke:none;stroke-width:1;stroke-linecap:round;stroke-linejoin:round;stroke-dasharray:none;stroke-opacity:1;paint-order:markers stroke fill"
     x="134.22765"
     y="151.87183"
     id="text40"><tspan
       sodipodi:role="line"
       x="134.22765"
       y="151.87183"
       style="font-size:5.33333px"
       id="tspan40">5. query/modify user data</tspan></text><path
     style="fill:none;fill-opacity:1;stroke:#303030;stroke-width:1;stroke-linecap:round;stroke-linejoin:round;stroke-dasharray:none;stroke-opacity:1;paint-order:markers stroke fill;marker-end:url(#marker42);marker-start:url(#marker43)"
     d="M 230.00001,154.99999 C 205.00001,154.99999 180.00001,130 170,115"
     id="path41"
     sodipodi:nodetypes="cc" /><text
     xml:space="preserve"
     style="font-style:normal;font-variant:normal;font-weight:normal;font-stretch:normal;font-size:5.33333px;font-family:Chalkboard;-inkscape-font-specification:Chalkboard;text-align:start;writing-mode:lr-tb;direction:ltr;text-anchor:start;fill:#1e1e1e;fill-opacity:1;stroke:none;stroke-width:1;stroke-linecap:round;stroke-linejoin:round;stroke-dasharray:none;stroke-opacity:1;paint-order:markers stroke fill"
     x="174.22766"
     y="118.93074"
     id="text44"><tspan
       sodipodi:role="line"
       x="174.22766"
       y="118.93074"
       style="font-size:5.33333px"
       id="tspan43">6. user information</tspan><tspan
       sodipodi:role="line"
       x="174.22766"
       y="125.5974"
       style="font-size:5.33333px"
       id="tspan44">   decryption</tspan></text><path
     style="fill:none;fill-opacity:1;stroke:#303030;stroke-width:1;stroke-linecap:round;stroke-linejoin:round;stroke-dasharray:none;stroke-opacity:1;paint-order:markers stroke fill;marker-start:url(#marker43)"
     d="M 65.000002,125 C 85.000003,159.99999 180.00002,164.99999 230.00001,164.99999"
     id="path44"
     sodipodi:nodetypes="cc" /><text
     xml:space="preserve"
     style="font-style:normal;font-variant:normal;font-weight:normal;font-stretch:normal;font-size:5.33333px;font-family:Chalkboard;-inkscape-font-specification:Chalkboard;text-align:start;writing-mode:lr-tb;direction:ltr;text-anchor:start;fill:#1e1e1e;fill-opacity:1;stroke:none;stroke-width:1;stroke-linecap:round;stroke-linejoin:round;stroke-dasharray:none;stroke-opacity:1;paint-order:markers stroke fill"
     x="85.758751"
     y="154.81142"
     id="text45"><tspan
       sodipodi:role="line"
       x="85.758751"
       y="154.81142"
       style="font-size:5.33333px"
       id="tspan45">7. result</tspan></text></svg>
